<?xml version="1.0" encoding="UTF-8"?>
<svg id="Layer_1" data-name="Layer 1" xmlns="http://www.w3.org/2000/svg" viewBox="0 0 1588.99 1592.68">
  <defs>
    <style>
      .cls-1 {
        fill: #fff;
      }

      .cls-2 {
        fill: #ffa613;
      }

      .cls-3 {
        fill: none;
        stroke: #ffa613;
        stroke-miterlimit: 10;
        stroke-width: 8px;
      }
    </style>
  </defs>
  <g>
    <path d="M1579.87,654.44c.84.14,2.43,1.54,3.63,1.81l-1.98,354.38-20.34,2.99-36.51,67.68c-14.1.98-28.71,1.33-42.84.83-8.88-.32-39.89-5.71-45.37-1.17l-51.84,93.63,44.48,92.49c2.17,5.44-.12,8.45-3.15,12.5-10.44,13.97-46.86,46.47-61.44,58.3-3.81,3.09-7.95,5.69-12.37,7.83l-73.28-35.72-8.34-.83-92.32,67.91c-.72,2.4-.49,4.86-.21,7.3,2.55,22.64,10.94,49.12,15.06,72.06.93,5.2,5.25,26.72,3.96,29.5-2.13,4.58-20.96,12.69-26.61,15.51-27.95,13.95-56.85,26.4-85.43,39.02-5.29,1.32-10.09-.23-13.66-4.27l-59.77-84.85-5.47-2.42c-28.84,6.57-57.91,12.43-86.7,19.19-5.42,1.28-10.92,1.91-15.59,3.07-15.98,3.97-16.25,5.88-20.9,21.09-9.04,29.57-14.75,61.62-23.65,91.42-.91,3.54-7.08,7.66-10.42,7.97-15.59,1.46-32.22-1.12-47.84-.95-19.48.2-40.88,3.16-60.88,1.47-16.24-1.37-15.08-7.47-19.29-21.15-8.2-26.68-12.63-59.59-22.3-85-4.31-11.32-8.03-11.95-19.35-14.86s-24.78-4.2-36.56-6.98c-17.99-4.24-42.37-12.63-59.89-14.75-4.3-.52-9.18-1.56-12.12,2.64-19.36,25.01-36.21,54.92-56.04,79.25-3.14,3.86-7.16,7.73-11.08,10.81-5.22,1.34-86.82-38.6-98.2-44.33-6.11-3.07-18.14-6.5-18.01-13.72l19.25-101.35-1.35-7.67-89.89-65.6-8.54.04c-21.59,8.88-43,23.5-64.4,32.01-5.51,2.19-10.54,5.54-16.03.92-7.9-8.8-17.82-15.37-26.53-23.22-11.26-10.14-33.23-29.47-41.99-40.41-7.72-9.64-1.07-15.57,3.62-25.99,11.92-26.45,27.86-51.36,37.95-78.53.02-2.92-2.61-6.59-3.97-9.3-11.59-23.18-29.97-55.51-44.1-77.18-1.25-1.92-3.59-6.37-5.03-7.41-5.07-3.65-33.79,1.43-42.03,1.73-15.14.55-30.5-.26-45.63-.39l-36.32-69.4c-3-1.87-12.32,2.25-15.3-2.59v-352.99l2.33-2.33h1570.55ZM734.73,780.39h47.43c2.97,0,1.02-16.05.6-19.26-3.25-24.91-13.8-44.64-39.87-50.32-51.69-11.26-80.06,19.66-75.01,70.34,4.91,49.21,75.31,65.1,69.95,115.09-2.19,20.4-23.32,15.2-23.32,1.55v-34.21c-14.27-6.96-31.58,2.36-46.65-2.33v44.32c0,7.06,9.49,28.08,14.72,33.49,17.63,18.24,62.66,19.82,82.46,4.6,23.79-18.28,24.37-75.93,11.94-100.56-11.37-22.53-60.85-55.69-63.69-74.76-1.48-9.98,2.47-15.64,12.93-14.48,12.16,1.36,7.78,18.08,8.5,26.53ZM55.2,951.44h45.87c1.54-.98,2.01-2.15,2.33-3.89.86-4.69.31-33.76,1.55-34.99l28.67-.03,3.99,38.91h45.1l-21.76-239.48-80.16-1.16-2.03,2.18-23.56,238.46ZM251.13,711.97l-44.7-1.26-3.51,2.03v236.36l2.33,2.33h95.63v-40.43h-49.76v-199.04ZM391.08,712.75v236.36l2.33,2.33h47.43v-110.41c4.48.67,17.11,2.72,17.11,8.55v99.52l2.33,2.33h45.87v-100.3c0-7.77-9.1-23.86-18.65-24.13l1.01-3.09c22.07-5.81,21.91-39.64,20.82-58.38-1.2-20.74-7.06-50.04-32.08-53.45-19.27-2.63-51.61-1.45-71.33-.07-3.62.25-14.15-2.12-14.84.72ZM628.99,711.97h-78.53c-.39,0-1.24-1.83-2.35-.9l-23.31,240.37h46.65l2.23-37.42,28.7-1.29c3.12,2.66.6,33.71,5.61,38.7h42.76l-21.77-239.47ZM854.47,711.97c-9.02,1.52-18.78-1.49-27.14-1.62-2.1-.03-4.36,1.4-6.5,1.4-4.34.01-11.23-2.19-14.57.99v236.36l2.33,2.33h45.87v-108.85h23.33v108.85h48.21v-239.47h-48.21v85.53h-23.33v-85.53ZM995.97,711.97l-44.33-.95-2.32,1.73v236.36l2.33,2.33h44.32v-239.47ZM1020.85,712.75v236.36l2.33,2.33h73.09c8.83,0,24.92-9.11,30.32-16.33,25.35-33.93,6.39-135.71,12.5-178.88-2.07-21.12-14.91-40.45-36.97-43.89-15.07-2.35-50.5-2.66-66.56-2.01-4.3.17-8.2,1.8-12.39.63l-2.32,1.79ZM1261.88,711.97l-96.41-1.56v241.03h99.52v-44.32l-2.33-2.33h-48.98v-54.43h45.1v-45.1c-14.2-.25-28.4-3.67-42.57-.12l-2.53-2.22v-43.54l2.33-2.33h45.87v-45.1ZM1381.61,711.97l-94.15-1.18-2.26,1.96v238.69h99.52v-46.65h-49.76v-54.43h45.1v-45.1c-10.26-.18-20.02-1.83-30.4-1.63-3.07.06-14.7,3.35-14.7-.7v-45.87h46.65v-45.1ZM1406.49,712.75v238.69h46.65v-116.63l24.88,116.63h46.65v-239.47c-13.45,1.89-28.24-3.17-41.29-1.63-2.26.27-4,.19-5.36,2.41v108.07l-20.9-107.39-3.2-1.47-44.26-.92-3.17,1.7ZM372.42,1008.98H44.31v3.11h328.11v-3.11ZM395.73,1008.98c-.98-.18-20.95-1.02-15.53,3.09.98.18,20.95,1.02,15.53-3.09ZM398.85,1012.09h332.77l-2.3-3.11c-28.54.05-57.08-.03-85.62-.06-7.25,0-14.31,0-21.63,0-73.64-.09-147.27.22-220.91.07l-2.3,3.11ZM1089.27,1008.98h-96.41v3.11h96.41v-3.11ZM1558.88,1008.98h-410.52v3.11h410.52v-3.11ZM663.2,1192.47c1.3-22.58-1.65-49.41-28.94-52.7-19.12-2.31-37.78,2.4-44.23,22.29-5.37,16.58-4.83,91.9-1.07,110.09,4.43,21.41,18.41,31.29,40.44,27.26,8.33-1.53,12.18-8.4,19.01-12.1l4.12,10.69,10.68.22,1.55-90.2h-37.32v24.88c3.03.04,7.92-1.03,9.11,2.55,1.06,3.18-.91,28.02-2.04,31.74-1.25,4.1-4.91,7.03-9.31,6.19-4.62-.67-7.53-6.37-8.28-10.52-2.16-12.02-2.16-74.33,0-86.34,2.18-12.09,16.04-15.02,18.2-1.84.9,5.49-.43,12.13.09,17.79h27.99ZM806.26,1192.47c-.23-33.2-8.51-57.71-47.02-52.47-23.32,3.18-29.57,21.13-30.14,42.1-.64,23.35-1.59,66.53,1.37,88.5,2.99,22.15,19.6,33.61,41.69,28.5,11.74-2.71,18.84-22.77,21.81-1.04l12.28.15v-90.18s-37.31,0-37.31,0v24.88h7.78v33.43c0,3.32-5.52,7.59-9.73,6.76-12.44-2.44-8.66-28.04-8.85-37.92-.31-16.22-2-40.17-.11-55.96.82-6.86,6.27-16.22,14.02-12.45,7.24,3.52,4,20.57,4.68,27.25,2.17.92,4.64-1.55,5.43-1.55h24.1ZM944.26,1139.97c-13.44,2.14-25.09,13.76-27.21,27.21-3.15,19.94-2.27,77.92-.35,99.12,4.08,45.02,66.06,42.86,74.27,9.01,4.39-18.11,3.69-80.45,1.88-100.7-2.52-28.13-21.47-38.96-48.58-34.64ZM473.49,1141.15h-62.2v157.06h63.76v-27.99h-32.66v-38.88h27.21l2.33-2.33v-25.66h-29.55v-34.21h31.1v-27.99ZM523.25,1141.15h-31.1v157.06h27.99v-77.75c4.32-1.08,4.71,7.86,5.47,10.86,5.59,21.89,8.12,44.86,13.19,66.89h27.99l1.56-157.06h-27.99c1.6,12.64-1.62,25.99-1.68,38.12-.04,8.92,2.16,17.96,1.68,27.98-.1,2.01,1.25,6.59-2.32,5.44l-14.79-71.54ZM881.68,1141.15c-15.99-2.85-39.86,2.12-56.76,0v157.06h29.55l.24-70.51c2.08-6.49,15.31.34,15.31,9.09v61.42h27.99v-59.87c0-1.2-2.16-13.07-2.72-14.39-1.82-4.32-8.17-5.31-8.19-8.92,16.29-4.97,13.97-35.7,12.28-49.6-1.1-9.09-8.03-22.55-17.71-24.27ZM1037.96,1141.15h-27.99v125.18c0,.75,2.13,9.82,2.61,11.38,9.95,32.39,67.28,30.12,71.89-5.29,1.03-7.9,1.41-20.92,1.75-29.35,1.39-33.85-1.17-68.06-.06-101.92h-29.55v123.62c0,.69-2.92,6.48-3.75,7.14-6.35,5.12-14.91-3.85-14.91-10.25v-120.51ZM1132.81,1298.21v-59.87c10.81-5.7,25.31-.51,35.61-9.48,15.09-13.15,14.22-60.31,3.27-76.05-2.45-3.52-12.31-11.65-16.34-11.65h-52.09v156.28c2.16,3.54,3.34.78,3.89.78h25.66Z"/>
    <path d="M93.29,550.25c3.5-.97,26.04-46.69,30.05-53.92,11.26-20.26,23.17-40.15,34.47-60.38l-58.92-108.53,79.84-85.15,5.9-1.2,102.17,48.74,94.21-67.7-18.79-119.7,118.28-52.45,74.91,98.89,128.47-24.98c3.26-1.69,4.14-8.12,5.3-11.8,11.4-36.24,16.87-75.82,28.65-112.07l144.42.53,33.79,123.64,127.95,24.29,75.35-98.49,118.72,51.13-16.58,121.51,95.38,67.41,100.74-49.01,84.36,86.85-58.37,108.1c11.26,20.25,23.25,40.11,34.47,60.38,9.89,17.86,17.9,37.91,30.06,53.91h63.76l2.33,2.33v96.41l-2.33,2.33H36.54v-101.08h56.76ZM175.71,617.12h139.95c11.33-15.94,19.36-34.43,29.67-51.19,12.28-19.98,26.76-38.67,39.51-58.33l-88.55-38.27c-2.38-3.39,10.93-20.03,17.08-16.43l87.89,34.79c30.09-36.43,63.29-70.13,98.65-101.49l-83.86-24.21c-.07-1.38-.51-3.02.24-4.31.79-1.36,16.52-10.83,19.04-10.91l87.99,19.36c61.29-46.38,125.99-89.85,198.16-117.61,3.89.38,7.22,6.69,8.63,10.19l-5.46,6.97c-63.32,24.93-121.19,61.68-173.35,104.96l98.47,16.16c16.13-21.33,30.59-43.89,47.05-64.98,9.74-12.47,21.67-27.74,32.47-39.06,8.26-8.66,20.33-21.19,31.71-10.1l-55.51,73.38-26.71,42.47c23.02,2.32,46.09,2.41,69.17,3.13,8.99.28,22.26,4.8,30.34-.79v-110.41c0-6.93,22.61-18.8,26.06,1.93,4,24.03,1.01,74.29.45,100.77-.05,2.27-.59,4.41-1.33,6.53l2.27,3.27,98.5-4.44-37.6-56.46-42.44-55.52-.65-7.6c14.01-6.28,28.34,12.69,37.11,22.44,26.01,28.88,47.73,62.14,69.52,94.16,2.46,1.65,15.69.09,19.75-.32,26.87-2.72,53.3-10.13,80.28-12.26l-1.62-5.37c-53.42-41.59-110.49-78.63-173.64-103.9-4.19-4.55-.83-14.62,5.05-15.18,3.56-.34,30.05,11.77,35.48,14.27,57.9,26.67,113.87,64.5,163.85,103.73l84.01-19.62c4.62-1.58,24.62,11.73,22.14,15.18l-79.82,20.49-2.66,5.14c35.85,30.41,68.01,64.82,99.04,100.1l88-34.47c5.96-1.76,17.83,12.41,13.62,16.84l-85.51,37.42c11.15,17.17,23.76,33.33,34.84,50.56,12.45,19.37,22.7,40.2,35.9,58.96h140.73c-46-140.52-158.64-253.78-288.68-320.1-211.27-107.75-466.66-103.77-675.19,8.56-122.45,65.96-225.11,176.24-271.68,308.38l1.66,3.16ZM429.96,495.81l146.15,36.64,60.62-121.38c-.26-3.82-33.97-6.3-39.43-7.18-23.75-3.82-47.23-9.46-70.98-13.19-35.47,29.92-64.66,65.98-95.61,100.46l-.77,4.65ZM1110.14,443.86c-17.38-18.71-35.07-37.1-54.64-53.55-36.33,6.86-72.48,14.53-109.29,18.44l60.12,122.91c49.57-7.12,97.91-22.07,146.03-35.74l-.09-4.76c-14.47-15.41-27.77-31.84-42.12-47.3ZM778.27,547.92v-127.51l-115.52-7.09c-22.16,38.53-43.57,79.64-57.19,122.03,30.8,5.56,62.78,9.41,94.2,11.77,16.71,1.26,36.17,2.69,52.79,3.19,4.63.14,24.61,1.2,25.72-2.4ZM804.71,550.25c33.85-.93,68.01-1.75,101.84-4.67,17.86-1.54,48.45-3.72,64.88-8.21,1.91-.52,6.9-1.35,7.38-3.55-17.08-41.87-37.1-82.66-60.6-121.26l-113.5,5.51v132.18ZM349.09,617.12h199.82l19.38-60.59c-52.47-9.79-104.15-23.47-154.65-40.58-10.89,9.85-19.56,24.78-27.88,37.55-5.72,8.77-11.37,17.81-16.73,26.81-7.07,11.9-14.02,24.3-19.95,36.81ZM1034.85,617.12h196.71l1.67-3.17c-10.01-16.97-19.27-34.46-29.79-51.12-6.11-9.68-23.11-38.21-30.14-44.49-1.93-1.72-2.61-2.43-5.47-2.43-49.47,17.23-100.23,30.09-151.52,40.69l18.54,60.51ZM778.27,578.24c-17.06,1.73-33.74-1.91-50.55-3.09-27.09-1.91-53.91-2.94-80.83-6.25-17.02-2.1-33.92-6.46-51.1-7.61-2.79.94-9.78,26.06-11.11,30.95-2.22,8.12-4.62,16.47-5.44,24.88h196.71l2.33-2.33v-36.54ZM1005.3,617.12c-1.57-11.97-5.45-23.67-9.29-35.02-1.32-3.91-5.55-19.89-8.82-20.79-15.48,2.05-30.93,5.73-46.43,7.59-28.57,3.43-56.93,4.33-85.49,6.25-16.78,1.13-33.47,5.02-50.55,3.1v38.88h200.6Z"/>
    <path class="cls-1" d="M1406.49,712.75l3.17-1.7,44.26.92,3.2,1.47,20.9,107.39v-108.07c1.37-2.22,3.1-2.15,5.36-2.41,13.04-1.53,27.84,3.52,41.29,1.63v239.47h-46.65l-24.88-116.63v116.63h-46.65v-238.69Z"/>
    <path class="cls-1" d="M391.08,712.75c.69-2.84,11.22-.46,14.84-.72,19.71-1.38,52.05-2.55,71.33.07,25.02,3.41,30.87,32.71,32.08,53.45,1.09,18.74,1.25,52.56-20.82,58.38l-1.01,3.09c9.56.26,18.65,16.35,18.65,24.13v100.3h-45.87l-2.33-2.33v-99.52c0-5.84-12.62-7.88-17.11-8.55v110.41h-47.43l-2.33-2.33v-236.36ZM440.84,800.61c4.99-.32,13.25,1.36,17.08-2.35,5.88-5.71,6.39-36.31-.64-41.3l-16.44-1.44v45.1Z"/>
    <path class="cls-1" d="M854.47,711.97v85.53h23.33v-85.53h48.21v239.47h-48.21v-108.85h-23.33v108.85h-45.87l-2.33-2.33v-236.36c3.34-3.19,10.24-.98,14.57-.99,2.13,0,4.4-1.43,6.5-1.4,8.35.13,18.12,3.14,27.14,1.62Z"/>
    <path class="cls-1" d="M1020.85,712.75l2.32-1.79c4.19,1.17,8.09-.46,12.39-.63,16.06-.64,51.49-.33,66.56,2.01,22.06,3.44,34.9,22.77,36.97,43.89-6.11,43.17,12.85,144.95-12.5,178.88-5.4,7.22-21.49,16.33-30.32,16.33h-73.09l-2.33-2.33v-236.36ZM1069.06,753.96v153.17c8.86,5.79,20.76,2.06,21.86-9.24,4.17-42.52-3.23-92.01-.19-135.28-1.77-11.17-13.02-8.49-21.67-8.65Z"/>
    <path class="cls-1" d="M55.2,951.44l23.56-238.46,2.03-2.18,80.16,1.16,21.76,239.48h-45.1l-3.99-38.91-28.67.03c-1.24,1.23-.69,30.31-1.55,34.99-.32,1.74-.79,2.91-2.33,3.89h-45.87ZM129.62,873.46c.42-4.26.43-8.68.2-12.98-1.53-28.64-4.45-61.66-7.77-90.19-.6-5.13-.71-15.12-4.64-17.89l-7.8,121.3,20.01-.24Z"/>
    <path class="cls-1" d="M628.99,711.97l21.77,239.47h-42.76c-5-4.99-2.48-36.04-5.61-38.7l-28.7,1.29-2.23,37.42h-46.65l23.31-240.37c1.11-.93,1.96.9,2.35.9h78.53ZM599.4,873.61l-12.38-121.19-9.36,121.29c7.72-1.06,14.44,3.43,21.73-.09Z"/>
    <path class="cls-1" d="M734.73,780.39c-.72-8.45,3.66-25.18-8.5-26.53-10.46-1.17-14.41,4.5-12.93,14.48,2.83,19.07,52.32,52.23,63.69,74.76,12.43,24.63,11.84,82.28-11.94,100.56-19.8,15.22-64.83,13.63-82.46-4.6-5.23-5.41-14.72-26.43-14.72-33.49v-44.32c15.07,4.69,32.38-4.63,46.65,2.33v34.21c0,13.65,21.13,18.85,23.32-1.55,5.36-49.99-65.04-65.88-69.95-115.09-5.05-50.68,23.32-81.6,75.01-70.34,26.07,5.68,36.62,25.41,39.87,50.32.42,3.2,2.38,19.26-.6,19.26h-47.43Z"/>
    <path class="cls-1" d="M1381.61,711.97v45.1h-46.65v45.87c0,4.05,11.62.76,14.7.7,10.37-.2,20.13,1.45,30.4,1.63v45.1h-45.1v54.43h49.76v46.65h-99.52v-238.69l2.26-1.96,94.15,1.18Z"/>
    <path class="cls-1" d="M1261.88,711.97v45.1h-45.87l-2.33,2.33v43.54l2.53,2.22c14.17-3.55,28.37-.14,42.57.12v45.1h-45.1v54.43h48.98l2.33,2.33v44.32h-99.52v-241.03l96.41,1.56Z"/>
    <polygon class="cls-1" points="251.13 711.97 251.13 911.01 300.89 911.01 300.89 951.44 205.25 951.44 202.92 949.11 202.92 712.75 206.43 710.71 251.13 711.97"/>
    <polygon class="cls-1" points="995.97 711.97 995.97 951.44 951.65 951.44 949.32 949.11 949.32 712.75 951.64 711.02 995.97 711.97"/>
    <path class="cls-2" d="M523.25,1141.15l14.79,71.54c3.57,1.15,2.22-3.43,2.32-5.44.49-10.02-1.72-19.06-1.68-27.98.05-12.14,3.28-25.48,1.68-38.12h27.99l-1.56,157.06h-27.99c-5.07-22.02-7.59-45-13.19-66.89-.77-3-1.15-11.94-5.47-10.86v77.75h-27.99v-157.06h31.1Z"/>
    <path class="cls-2" d="M881.68,1141.15c9.68,1.73,16.61,15.18,17.71,24.27,1.69,13.9,4,44.63-12.28,49.6.02,3.61,6.36,4.6,8.19,8.92.56,1.32,2.72,13.19,2.72,14.39v59.87h-27.99v-61.42c0-8.75-13.23-15.57-15.31-9.09l-.24,70.51h-29.55v-157.06c16.89,2.12,40.76-2.85,56.76,0ZM854.47,1169.14v28.77c18.33,10.7,20.6-16.46,14.05-28.05l-14.05-.72Z"/>
    <path class="cls-2" d="M944.26,1139.97c27.11-4.32,46.06,6.51,48.58,34.64,1.81,20.25,2.51,82.59-1.88,100.7-8.21,33.86-70.18,36.01-74.27-9.01-1.92-21.19-2.8-79.18.35-99.12,2.12-13.45,13.77-25.07,27.21-27.21ZM959.8,1168.01c-7.08-6.5-12.81,2.25-13.59,9.69-2.9,27.78,2.12,60.29.03,88.6,6.52,11.69,15.59,8.7,17.07-4.63,2.05-18.41,2.08-65.61.04-84-.27-2.4-1.96-8.19-3.56-9.65Z"/>
    <path class="cls-2" d="M1037.96,1141.15v120.51c0,6.4,8.56,15.38,14.91,10.25.83-.67,3.75-6.45,3.75-7.14v-123.62h29.55c-1.1,33.86,1.45,68.07.06,101.92-.35,8.42-.72,21.45-1.75,29.35-4.61,35.41-61.94,37.69-71.89,5.29-.48-1.57-2.61-10.63-2.61-11.38v-125.18h27.99Z"/>
    <path class="cls-2" d="M663.2,1192.47h-27.99c-.52-5.66.81-12.3-.09-17.79-2.16-13.18-16.02-10.26-18.2,1.84-2.16,12.02-2.16,74.32,0,86.34.75,4.15,3.66,9.85,8.28,10.52,4.4.84,8.07-2.08,9.31-6.19,1.13-3.72,3.1-28.55,2.04-31.74-1.19-3.58-6.09-2.51-9.11-2.55v-24.88h37.32l-1.55,90.2-10.68-.22-4.12-10.69c-6.82,3.7-10.67,10.57-19.01,12.1-22.03,4.04-36.01-5.85-40.44-27.26-3.76-18.18-4.31-93.5,1.07-110.09,6.45-19.89,25.11-24.6,44.23-22.29,27.29,3.29,30.24,30.11,28.94,52.7Z"/>
    <path class="cls-2" d="M806.26,1192.47h-24.1c-.79,0-3.26,2.47-5.43,1.55-.68-6.68,2.56-23.74-4.68-27.25-7.75-3.76-13.2,5.59-14.02,12.45-1.89,15.78-.2,39.74.11,55.96.19,9.88-3.58,35.48,8.85,37.92,4.22.83,9.73-3.44,9.73-6.76v-33.43h-7.78v-24.88h37.32v90.18s-12.29-.15-12.29-.15c-2.98-21.73-10.07-1.67-21.81,1.04-22.09,5.11-38.7-6.35-41.69-28.5-2.96-21.96-2.01-65.15-1.37-88.5.57-20.97,6.81-38.92,30.14-42.1,38.51-5.24,46.79,19.27,47.02,52.47Z"/>
    <path class="cls-2" d="M1132.81,1298.21h-25.66c-.54,0-1.72,2.76-3.89-.78v-156.28h52.09c4.03,0,13.89,8.13,16.34,11.65,10.94,15.74,11.82,62.9-3.27,76.05-10.3,8.98-24.8,3.78-35.61,9.48v59.87ZM1132.81,1169.92c-1.46,4.68,0,28.57,0,35.77,0,.24,1.6,3.78,2.56,3.99,16.3.63,16.11-18.2,14.41-30.28-1.57-11.1-14.97-15.88-16.96-9.47Z"/>
    <polygon class="cls-2" points="473.49 1141.15 473.49 1169.14 442.39 1169.14 442.39 1203.35 471.94 1203.35 471.94 1229.01 469.6 1231.34 442.39 1231.34 442.39 1270.22 475.05 1270.22 475.05 1298.21 411.29 1298.21 411.29 1141.15 473.49 1141.15"/>
    <rect class="cls-1" x="1148.36" y="1008.98" width="410.52" height="3.11"/>
    <rect class="cls-1" x="44.31" y="1008.98" width="328.11" height="3.11"/>
    <path class="cls-1" d="M398.85,1012.09l2.3-3.11c73.64.15,147.27-.16,220.91-.07,7.33,0,14.39,0,21.63,0,28.54.04,57.08.11,85.62.06l2.3,3.11h-332.77Z"/>
    <rect class="cls-1" x="992.86" y="1008.98" width="96.41" height="3.11"/>
    <path class="cls-1" d="M395.73,1008.98c5.41,4.11-14.55,3.27-15.53,3.09-5.41-4.11,14.55-3.27,15.53-3.09Z"/>
    <path d="M440.84,800.61v-45.1l16.44,1.44c7.03,4.99,6.52,35.6.64,41.3-3.83,3.72-12.09,2.03-17.08,2.35Z"/>
    <path d="M1069.06,753.96c8.65.16,19.91-2.52,21.67,8.65-3.04,43.27,4.36,92.76.19,135.28-1.11,11.3-13.01,15.02-21.86,9.24v-153.17Z"/>
    <path d="M129.62,873.46l-20.01.24,7.8-121.3c3.93,2.77,4.05,12.76,4.64,17.89,3.31,28.54,6.23,61.55,7.77,90.19.23,4.29.22,8.71-.2,12.98Z"/>
    <path d="M599.4,873.61c-7.3,3.52-14.01-.97-21.73.09l9.36-121.29,12.38,121.19Z"/>
    <path d="M854.47,1169.14l14.05.72c6.55,11.59,4.27,38.75-14.05,28.05v-28.77Z"/>
    <path d="M959.8,1168.01c1.59,1.46,3.29,7.25,3.56,9.65,2.04,18.4,2,65.59-.04,84-1.48,13.34-10.55,16.32-17.07,4.63,2.09-28.31-2.93-60.81-.03-88.6.78-7.44,6.5-16.19,13.59-9.69Z"/>
    <path d="M1132.81,1169.92c2-6.41,15.4-1.62,16.96,9.47,1.71,12.09,1.9,30.92-14.41,30.28-.96-.21-2.56-3.76-2.56-3.99,0-7.2-1.46-31.08,0-35.77Z"/>
  </g>
  <rect class="cls-3" x="4" y="654.44" width="1580.99" height="356.99"/>
</svg>